<svg id="Capa_1" enable-background="new 0 0 512 512" height="512" viewBox="0 0 512 512" width="512" xmlns="http://www.w3.org/2000/svg"><g><circle cx="201.44" cy="204.144" r="15"/><circle cx="310.56" cy="204.144" r="15"/><path d="m214.192 275.79c-5.109 6.521-3.964 15.949 2.557 21.059 11.555 9.054 25.403 13.58 39.251 13.58s27.696-4.526 39.251-13.58c6.521-5.109 7.666-14.537 2.557-21.059-5.11-6.521-14.539-7.665-21.059-2.557-12.217 9.572-29.281 9.572-41.498 0-6.52-5.107-15.949-3.963-21.059 2.557z"/><circle cx="256" cy="71.425" r="15"/><path d="m450.33 492.52-19.46-62.2c-11.35-36.28-45.42-64.97-71.99-82.65l-17.42-11.58c-.01-.01-.02-.01-.03-.02 24.4-21.67 40.7-52.42 43.64-86.93h15.49c24.86 0 45-20.13 45-45 0-24.81-20.19-45-45-45h-15v-24.87c0-20.79-6.64-40.51-19.19-57.02-10.54-13.85-24.92-24.62-41.07-30.89-11.47-27.65-38.89-46.36-69.3-46.36s-57.83 18.71-69.3 46.36c-16.15 6.27-30.53 17.04-41.07 30.89-12.55 16.51-19.19 36.23-19.19 57.02v24.87h-15c-24.81 0-45 20.19-45 45 0 24.87 20.13 45 45 45h15.38c2.56 33.58 17.89 64.49 43.47 87.12-6.47 4.3-7.14 4.75-17.17 11.41-26.57 17.68-60.64 46.37-71.99 82.65l-19.46 62.2c-2.48 7.91 1.93 16.32 9.83 18.8 7.981 2.464 16.337-1.985 18.8-9.84l19.46-62.2c7.31-23.37 29.27-43.96 47.24-57.58v42.88c-17.46 6.19-30 22.87-30 42.42 0 24.81 20.19 45 45 45s45-20.19 45-45c0-19.55-12.54-36.23-30-42.42v-63.41l4.43-2.95 49.57 79.73v59.05c0 8.28 6.72 15 15 15s15-6.72 15-15v-59.05l47.06-75.69v104.74c0 8.28 6.72 15 15 15s15-6.72 15-15v-90.37c18.78 13.24 45.89 36.16 54.18 62.65l19.46 62.2c2.465 7.874 10.832 12.3 18.8 9.84 7.9-2.48 12.31-10.89 9.83-18.8zm-64.77-303.38h15c8.27 0 15 6.73 15 15 0 8.29-6.72 15-15 15h-15zm-259.12 30h-15c-8.28 0-15-6.71-15-15 0-8.27 6.73-15 15-15h15zm204.09-135.73c11.68 9.07 20.04 22.04 23.39 36.6h-37.91c7.87-10.49 13.01-23.17 14.52-36.6zm-74.53-53.41c24.29 0 45 19.74 45 45 0 24.75-20.03 45.01-45 45.01s-45-20.25-45-45.01c0-25.18 20.62-45 45-45zm-74.53 53.41c1.45 12.92 6.32 25.66 14.52 36.6h-37.91c3.35-14.56 11.71-27.53 23.39-36.6zm5.89 383.64c0 8.48-6.88 15.36-15.36 15.36s-15.36-6.88-15.36-15.36 6.88-15.35 15.36-15.35 15.36 6.87 15.36 15.35zm68.64-61.79-24.14-38.83c15.505 2.916 32.013 3.079 48.32-.06zm.35-66.59h-.36c-54.99 0-99.55-44.51-99.55-99.56v-89.1h199.12v87.86c0 55.39-44.51 100.61-99.21 100.8z"/></g></svg>