<svg width="110" height="123" viewBox="0 0 110 123" fill="none" xmlns="http://www.w3.org/2000/svg">
<g clip-path="url(#clip0_1_30)">
<path fill-rule="evenodd" clip-rule="evenodd" d="M82.28 105.33H71.48V90.47H56.14V105.33H44.99L63.63 122.87L82.28 105.33ZM102.4 33.95H83.61C81.63 33.95 78.88 32.89 77.58 31.59C76.28 30.29 75.49 27.94 75.49 25.98V6.95H25.83C25.67 6.95 25.54 7.03 25.46 7.11C25.32 7.2 25.28 7.32 25.28 7.49V95.22C25.28 95.34 25.37 95.51 25.44 95.59C25.53 95.72 25.7 95.75 25.82 95.75H38.78C37.75 97.91 36.99 100.24 36.55 102.66H23.7C22.24 102.66 20.94 102.08 19.97 101.11C19.01 100.15 18.43 98.85 18.43 97.38V5.32C18.43 3.86 19.02 2.56 19.97 1.59C20.94 0.62 22.28 0.04 23.7 0.04H79.01C79.13 0 79.25 0 79.38 0C79.96 0 80.56 0.25 80.97 0.62H81.05C81.14 0.67 81.18 0.71 81.26 0.78L108.53 28.38C108.99 28.84 109.33 29.47 109.33 30.18C109.33 30.39 109.29 30.55 109.25 30.78C109.25 56 109.25 72.17 109.25 97.39C109.25 98.85 108.66 100.16 107.7 101.12C106.73 102.08 105.43 102.67 103.97 102.67H90C89.56 100.24 88.81 97.92 87.77 95.76H101.84C102 95.76 102 95.67 102.09 95.6C102.22 95.51 102.39 95.34 102.39 95.23C102.39 71.78 102.4 57.39 102.4 33.95ZM81.72 25.43V8.12L101.21 27.86H84.15C83.48 27.86 82.89 27.57 82.43 27.15C82.01 26.73 81.72 26.1 81.72 25.43Z" fill="#262626"/>
<path fill-rule="evenodd" clip-rule="evenodd" d="M0 38.51H88.9V81.22H0V38.51Z" fill="#2D63F0"/>
<g filter="url(#filter0_d_1_30)">
<path d="M17.085 59.8018H23.1445C24.3066 59.8018 25.1035 59.4753 25.5352 58.8223C25.9779 58.1582 26.1992 57.1566 26.1992 55.8174C26.1992 53.2718 25.2474 51.999 23.3438 51.999H17.085V59.8018ZM12.1543 73V48.4961H22.7295C25.8949 48.4961 28.0475 49.138 29.1875 50.4219C30.3385 51.7057 30.9141 53.4489 30.9141 55.6514C30.9141 57.8428 30.5931 59.4421 29.9512 60.4492C29.3203 61.4453 28.4404 62.1647 27.3115 62.6074L32.043 73H26.9297L22.6299 63.3213H17.085V73H12.1543ZM37.471 73V48.4961H53.5247V52.2148H42.3851V58.7227H52.263V62.2754H42.3851V69.2812H53.7073V73H37.471ZM59.6334 73V48.4961H74.4586V52.2646H64.5641V58.9385H73.778V62.4746H64.5641V73H59.6334Z" fill="white"/>
</g>
</g>
<defs>
<filter id="filter0_d_1_30" x="8.1543" y="48.4961" width="70.3043" height="32.5039" filterUnits="userSpaceOnUse" color-interpolation-filters="sRGB">
<feFlood flood-opacity="0" result="BackgroundImageFix"/>
<feColorMatrix in="SourceAlpha" type="matrix" values="0 0 0 0 0 0 0 0 0 0 0 0 0 0 0 0 0 0 127 0" result="hardAlpha"/>
<feOffset dy="4"/>
<feGaussianBlur stdDeviation="2"/>
<feComposite in2="hardAlpha" operator="out"/>
<feColorMatrix type="matrix" values="0 0 0 0 0 0 0 0 0 0 0 0 0 0 0 0 0 0 0.25 0"/>
<feBlend mode="normal" in2="BackgroundImageFix" result="effect1_dropShadow_1_30"/>
<feBlend mode="normal" in="SourceGraphic" in2="effect1_dropShadow_1_30" result="shape"/>
</filter>
<clipPath id="clip0_1_30">
<rect width="109.33" height="122.88" fill="white"/>
</clipPath>
</defs>
</svg>
