<svg xmlns="http://www.w3.org/2000/svg" version="1.0" width="314.000000pt" height="515.000000pt" viewBox="0 0 314.000000 515.000000" preserveAspectRatio="xMidYMid meet" transform="matrix(1, 0, 0, 1, 0, 0)">

<g transform="translate(0.000000,515.000000) scale(0.100000,-0.100000)" fill="#d0eeff" stroke="none">
<path d="M472 5129 c-207 -35 -390 -210 -432 -416 -15 -71 -8 -221 14 -290 37 -116 83 -166 940 -1023 l826 -825 -848 -850 c-719 -721 -853 -859 -879 -910 -144 -279 -39 -608 239 -744 177 -87 369 -75 532 34 28 19 528 512 1112 1097 983 985 1063 1068 1091 1128 45 95 56 144 57 245 0 111 -27 205 -83 290 -25 39 -410 430 -1107 1126 -1002 999 -1073 1067 -1131 1093 -115 50 -218 64 -331 45z" fill="#d0eeff"/>
</g>
</svg>