<svg xmlns="http://www.w3.org/2000/svg" version="1.0" width="512.000000pt" height="512.000000pt" viewBox="0 0 512.000000 512.000000" preserveAspectRatio="xMidYMid meet">
<metadata fill="#9e9e9e">
Created by potrace 1.16, written by Peter Selinger 2001-2019
</metadata>
<g transform="translate(0.000000,512.000000) scale(0.100000,-0.100000)" fill="#9e9e9e" stroke="none">
<path d="M2698 4962 c-218 -217 -221 -183 44 -449 l202 -203 -103 -104 -103 -103 -93 49 c-195 102 -363 142 -595 142 -166 0 -259 -14 -400 -61 -375 -126 -682 -433 -804 -806 -46 -140 -60 -232 -60 -397 -1 -236 37 -399 140 -600 168 -328 459 -556 830 -650 l40 -10 27 -109 c30 -120 69 -223 122 -316 l34 -61 -160 -160 -159 -159 0 173 c0 170 0 173 -25 197 l-24 25 -234 0 -234 0 -24 -26 -24 -26 -3 -601 c-2 -331 0 -617 3 -635 3 -18 15 -42 26 -53 18 -18 38 -19 658 -19 l640 0 20 26 c20 25 21 39 21 254 0 215 -1 229 -21 254 l-20 26 -182 0 -182 1 164 158 165 157 100 -50 c192 -97 356 -136 579 -136 363 0 667 127 915 384 178 184 284 386 339 646 28 136 24 382 -10 528 -93 401 -382 745 -748 891 -43 17 -113 41 -158 52 l-80 22 -11 56 c-19 99 -70 243 -120 337 l-47 92 103 103 104 103 203 -202 c191 -190 205 -202 240 -202 35 0 50 12 193 147 85 80 159 154 165 164 5 10 9 35 9 55 0 36 -11 49 -202 241 l-202 203 202 203 c265 266 262 232 44 449 -217 218 -183 221 -449 -44 l-203 -202 -203 202 c-266 265 -232 262 -449 44z m-423 -1265 c112 -37 196 -89 285 -177 60 -60 85 -95 123 -170 25 -52 49 -107 53 -121 5 -26 3 -28 -78 -54 -108 -36 -254 -110 -347 -175 -194 -137 -389 -401 -452 -609 -7 -25 -18 -41 -27 -41 -29 0 -159 71 -218 118 -264 213 -340 580 -182 885 63 123 182 238 308 301 125 61 196 76 340 72 90 -3 132 -9 195 -29z m486 -759 c-20 -147 -21 -150 -104 -191 -179 -88 -316 -232 -401 -420 -61 -134 -71 -185 -70 -362 0 -144 3 -169 27 -248 89 -289 289 -497 569 -593 145 -49 350 -57 498 -19 321 83 573 349 645 679 26 119 17 322 -20 436 -76 236 -231 421 -445 529 -52 26 -105 50 -117 53 -21 6 -22 9 -16 114 3 60 7 111 9 113 6 6 160 -50 224 -82 114 -57 182 -108 286 -211 235 -236 349 -552 315 -877 -52 -493 -401 -881 -881 -979 -146 -30 -360 -24 -498 14 -108 30 -217 79 -318 141 -41 26 -84 45 -100 45 -24 0 -74 -45 -311 -283 -251 -250 -283 -286 -283 -314 0 -87 19 -93 295 -93 l225 0 0 -110 0 -110 -510 0 -510 0 0 510 0 510 110 0 110 0 0 -235 0 -236 25 -24 c16 -16 35 -25 57 -25 29 0 61 28 317 284 239 239 284 289 284 313 0 16 -23 67 -56 123 -166 277 -203 622 -102 930 85 257 274 482 519 615 66 37 226 98 234 90 2 -2 -1 -41 -7 -87z m702 -395 c142 -96 255 -262 291 -430 57 -257 -38 -531 -242 -699 -162 -133 -381 -190 -582 -150 -156 31 -323 129 -415 244 -53 66 -125 204 -128 245 -2 28 2 30 105 66 337 120 602 371 740 701 19 47 38 93 41 103 6 16 11 15 64 -8 32 -14 88 -46 126 -72z" fill="#9e9e9e"/>
</g>
</svg>