<?xml version="1.0" encoding="UTF-8"?><svg id="Capa_1" xmlns="http://www.w3.org/2000/svg" viewBox="0 0 592.7 592.6"><path d="M349.7,2.4c-22.1,3.4-41.2,9.4-61,19-63.7,31.1-106.7,92-115.5,163.5-1.6,13.1-1.4,42,.5,55.4,4.3,30.7,15.8,60.8,33.1,86.5l6.6,9.9-43.1,43.1-43.1,43.1-31.5-31.5-31.5-31.5-21.2,21.3-21.3,21.2,31.5,31.5,31.5,31.5-42,42L.7,549.4l21.3,21.2,21.2,21.3,42-42,42-42,31.5,31.5,31.5,31.5,21.2-21.3,21.3-21.2-31.5-31.5-31.5-31.5,43.1-43.1,43.1-43.1,10.9,7.3c26.6,17.5,57.4,28.9,89.4,32.9,10.9,1.3,41.6,1.3,51.7,0,49-6.5,89.9-26.4,123.4-59.9s53.4-74.4,59.9-123.4c1.3-10.1,1.3-39.8,0-50.7-5.1-40.8-21.4-78.4-47.9-110.2C509.5,34.8,460.1,8,407.2,1.5c-13.5-1.7-43.6-1.2-57.5,.9Zm64.6,61.8c19.2,4.5,35.1,11.2,50.7,21.5,34.3,22.6,57.3,58,64.4,99.2,2.6,15.6,2.1,43-1,56.6-7.1,30.2-19.3,52.2-41.1,73.9-21.7,21.7-44.4,34.2-74,41.2-11,2.5-38.8,3.6-51.5,1.9-66.4-8.9-118.3-60.5-127.6-127.1-1.4-9.6-1.4-32.4,0-42,8.5-60.4,52.4-109.4,111-123.9,14.2-3.5,19.6-4,40.5-3.6,15.5,.3,21.9,.8,28.6,2.3Z" fill="#eb9ac0" stroke="#141314" stroke-miterlimit="10"/></svg>