<?xml version="1.0" encoding="UTF-8" standalone="no"?>
<svg
   version="1.0"
   width="512pt"
   height="512pt"
   viewBox="0 0 512 512"
   preserveAspectRatio="xMidYMid"
   id="svg5"
   sodipodi:docname="portapapeles (1).svg"
   inkscape:version="1.3.2 (091e20e, 2023-11-25, custom)"
   xmlns:inkscape="http://www.inkscape.org/namespaces/inkscape"
   xmlns:sodipodi="http://sodipodi.sourceforge.net/DTD/sodipodi-0.dtd"
   xmlns="http://www.w3.org/2000/svg"
   xmlns:svg="http://www.w3.org/2000/svg">
  <defs
     id="defs5" />
  <sodipodi:namedview
     id="namedview5"
     pagecolor="#ffffff"
     bordercolor="#000000"
     borderopacity="0.25"
     inkscape:showpageshadow="2"
     inkscape:pageopacity="0.0"
     inkscape:pagecheckerboard="0"
     inkscape:deskcolor="#d1d1d1"
     inkscape:document-units="pt"
     inkscape:zoom="1.2026367"
     inkscape:cx="340.91758"
     inkscape:cy="341.33333"
     inkscape:window-width="1920"
     inkscape:window-height="1017"
     inkscape:window-x="-8"
     inkscape:window-y="-8"
     inkscape:window-maximized="1"
     inkscape:current-layer="svg5" />
  <g
     transform="matrix(0.1,0,0,-0.1,0,512)"
     fill="#000000"
     stroke="none"
     id="g5"
     style="fill:#2a7fff;opacity:0.95">
    <path
       d="M 350,2795 V 470 h 1148 1147 l 52,-60 C 2997,62 3470,-80 3910,46 c 111,32 287,119 375,185 144,108 283,274 363,434 37,75 88,237 103,330 16,104 14,296 -5,398 -65,345 -277,641 -582,812 l -84,47 V 3686 5120 H 2215 350 Z m 980,1930 v -85 H 1090 850 V 2810 980 h 788 787 l 20,-82 c 11,-46 21,-91 23,-100 3,-17 -45,-18 -897,-18 H 670 v 2015 2015 h 330 330 z m 1460,-160 v -245 l -572,2 -573,3 -3,230 c -1,126 0,235 2,242 4,10 123,13 576,13 h 570 z m 978,-989 2,-1229 -67,6 c -38,4 -80,7 -95,7 h -28 v 1140 1140 h -240 -240 v 85 85 l 333,-2 332,-3 z m -2438,594 v -160 h 885 884 l 3,158 3,157 83,3 82,3 V 3322 2314 l -57,-18 c -271,-85 -533,-309 -670,-572 -49,-93 -96,-230 -113,-324 -6,-36 -13,-75 -16,-88 l -4,-22 -623,2 -622,3 -3,1505 c -1,828 0,1511 3,1518 3,8 30,12 85,12 h 80 z M 3793,2019 c 152,-36 272,-105 398,-229 176,-174 259,-368 259,-610 0,-322 -176,-615 -460,-763 -333,-175 -730,-120 -998,137 -292,279 -352,706 -151,1063 59,104 196,242 304,305 190,112 433,149 648,97 z"
       id="path1"
       style="fill:#2a7fff" />
    <path
       d="m 1580,3575 v -155 h 615 615 v 155 155 h -615 -615 z"
       id="path2"
       style="fill:#2a7fff" />
    <path
       d="m 1580,3010 v -160 l 613,2 612,3 v 155 155 l -612,3 -613,2 z"
       id="path3"
       style="fill:#2a7fff" />
    <path
       d="m 1580,2445 v -155 h 615 615 v 155 155 h -615 -615 z"
       id="path4"
       style="fill:#2a7fff" />
    <path
       d="m 3430,1530 v -200 h -190 -190 v -160 -160 h 190 190 V 810 610 h 155 155 v 200 200 l 193,2 192,3 v 155 155 l -192,3 -193,2 v 200 200 h -155 -155 z"
       id="path5"
       style="fill:#2a7fff" />
  </g>
  <rect
     style="fill:#e6e6e6;stroke-width:0.75"
     id="rect1"
     width="3.7417784"
     height="97.909866"
     x="97.28624"
     y="115.99513" />
</svg>
