<?xml version="1.0" encoding="UTF-8"?><svg id="Capa_1" xmlns="http://www.w3.org/2000/svg" viewBox="0 0 415.1 541"><path d="M329.6,26c-31.1,14-57.1,26.2-57.7,27.1-.7,.9-1.3,2.4-1.3,3.4,0,2.3,12.7,30.1,14.2,31.1,2.8,1.7,6.9,.5,21.7-6.2,8.5-3.9,15.6-6.9,15.7-6.7,.2,.2-10.3,19.9-23.3,43.9l-23.6,43.6-4.3-1.8c-7.2-3.1-23.5-8.1-32.9-10-35.4-7.4-75.6-4.5-108.5,7.7C68.2,180.9,22,232.2,6.2,295.2c-7.6,30.1-7.6,66.2-.1,96.2,17.7,70.6,72.9,125.8,143.5,143.5,22.4,5.6,53.5,7.2,75.9,3.9,89.8-13.2,158.4-84.3,168.2-174.6,1.6-14.5,.6-42.5-2-56.3-3.8-20.1-9-35.6-18.3-54-10.3-20.4-21.5-35.3-40.3-53.3l-12.5-12,24.1-44.6c13.3-24.6,24.3-44.5,24.5-44.4,.1,.2,1.4,8.2,2.9,17.8,2.9,18.7,3.8,21,8.7,21s30.4-4.3,32.1-5.8c1-.9,1.7-2.9,1.7-4.9,0-5.9-19-124.6-20.1-126-2.8-3.3-8.3-1.2-64.9,24.3Zm63.5,43.9c4.5,28.6,8.1,52.2,7.9,52.4s-3.5,.9-7.4,1.6c-6.8,1.2-7.1,1.1-7.5-.9-.3-1.2-2.1-12.2-4-24.6-3-19.1-3.8-22.8-5.6-24.3-1.2-.9-2.9-1.7-3.9-1.7s-2.7,.8-3.8,1.7c-2.7,2.3-63.2,114.3-63.2,116.8,.1,2.7,1.3,4,9.7,10.8,25.5,20.7,46.9,51.8,57.3,83.6,27.4,83.5-7.4,174.3-83.6,218.2-39.4,22.7-86.5,30-130.3,20.3-55.5-12.4-102-48.7-126.6-98.9-21.7-44.3-25-93.1-9.5-139.8,12.1-36.2,36.6-69.4,68.1-92,12-8.6,35.2-20.3,49.6-25,41.5-13.5,88.2-11.7,127.5,4.8,9.2,3.9,12.8,4.3,15,1.7,3.5-4.1,61.1-111.9,61.1-114.4,0-3.7-2-5.8-5.7-5.8s-12,4-24.5,9.6c-11.7,5.2-21.6,9.3-21.9,9-1.2-1.3-6-13.1-5.4-13.4,.4-.1,22.5-10.1,49.2-22,26.7-12,48.7-21.4,48.9-20.8s4.1,24.5,8.6,53.1Z" fill="#3b8eed" stroke="#fff" stroke-miterlimit="10"/><path d="M180.1,195.5c-44,5.2-84.6,30.8-108.7,68.5-8.5,13.3-16,32.2-20,50.1-3.2,14.3-3.2,44.3,0,59,6.5,30.2,19.2,53.5,41.1,75.4,21.9,21.8,45.4,34.6,75.4,41.1,13.9,3,41.5,3.2,56.2,.4,30.6-5.7,56.2-19.3,78.6-41.6,25.1-25.1,39.3-54.9,42.9-90.5,3.6-34.8-6.2-72-26.7-100.8-7.4-10.5-24.5-27.6-35-35-16.8-11.9-39.8-21.6-59.8-25.2-11.2-2-33.4-2.7-44-1.4Zm45.5,14.7c47.4,11,84.9,44.1,100.3,88.7,5.9,16.9,7.1,24.8,7.2,44.5,0,19.2-1.2,27-6.7,43.5-15.7,47-57.5,82.4-107.2,91-11.5,2-31.8,1.9-43.7-.1-19.2-3.3-39.5-11.5-55.7-22.6-9.9-6.8-27.2-24.1-34-34-37.8-55.2-30.9-128,16.7-174.8,18.5-18.2,41.8-30.7,66.7-35.9,14.3-3,14.4-3,31.9-2.6,11.2,.3,18.6,1,24.5,2.3Z" fill="#3b8eed" stroke="#fff" stroke-miterlimit="10"/></svg>